<?xml version="1.0" encoding="UTF-8"?>
<svg version="1.1" xmlns="http://www.w3.org/2000/svg" width="345" height="309">
<path d="M0 0 C113.85 0 227.7 0 345 0 C345 101.97 345 203.94 345 309 C231.15 309 117.3 309 0 309 C0 207.03 0 105.06 0 0 Z " fill="#010101" transform="translate(0,0)"/>
<path d="M0 0 C31.68 0 63.36 0 96 0 C89.23956967 12.39412228 89.23956967 12.39412228 86.58984375 16.98828125 C85.9983252 18.01445557 85.40680664 19.04062988 84.79736328 20.09790039 C83.87673096 21.6891272 83.87673096 21.6891272 82.9375 23.3125 C82.29280762 24.42810303 81.64811523 25.54370605 80.98388672 26.69311523 C76.56096025 34.33394527 72.10898899 41.95734635 67.625 49.5625 C66.79536743 50.97172729 66.79536743 50.97172729 65.94897461 52.40942383 C65.44245361 53.26560303 64.93593262 54.12178223 64.4140625 55.00390625 C63.9701416 55.75486572 63.5262207 56.5058252 63.06884766 57.27954102 C62 59 62 59 61 60 C59.58774954 60.0928726 58.17091066 60.11746772 56.75561523 60.11352539 C55.85475693 60.11344986 54.95389862 60.11337433 54.02574158 60.11329651 C53.04658279 60.10813522 52.06742401 60.10297394 51.05859375 60.09765625 C50.06118668 60.0962413 49.0637796 60.09482635 48.03614807 60.09336853 C44.83656876 60.08775114 41.63705831 60.07519571 38.4375 60.0625 C36.27408955 60.05748724 34.11067801 60.05292395 31.94726562 60.04882812 C26.63148675 60.03777607 21.31574829 60.02102104 16 60 C16.02664734 60.92833649 16.05329468 61.85667297 16.08074951 62.81314087 C16.32359375 71.6649284 16.50507593 80.51556067 16.62174606 89.36994362 C16.68375309 93.91981413 16.7674851 98.46688031 16.90527344 103.01513672 C18.03190533 141.19153121 18.03190533 141.19153121 5.35656738 158.17547607 C3.84109792 160.14973008 3.84109792 160.14973008 2.17871094 163.04931641 C1.78973633 163.69304199 1.40076172 164.33676758 1 165 C0.67 165 0.34 165 0 165 C0 110.55 0 56.1 0 0 Z " fill="#F8F8F8" transform="translate(179,85)"/>
<path d="M0 0 C31.68 0 63.36 0 96 0 C96 54.78 96 109.56 96 166 C93.27662982 164.63831491 92.82654655 163.06850501 91.42578125 160.37109375 C87.57046441 153.13261105 83.38528943 146.10485037 79.1875 139.0625 C78.34883697 137.65196062 77.51021462 136.24139705 76.67163086 134.83081055 C70.84392763 125.03952771 64.93707621 115.29808167 59.00042725 105.57260132 C52.91841048 95.60139056 47.07500833 85.51216557 41.34619141 75.33496094 C39.34489195 71.86371901 37.23799546 68.45785497 35.12573242 65.05322266 C34 63 34 63 34 61 C50.92066356 59.64299629 50.92066356 59.64299629 55.31640625 62.51171875 C56.88337149 64.9268988 57.91998049 67.33086087 59 70 C60.22659322 72.1800031 61.47881156 74.34569631 62.75 76.5 C64.1525 78.975 65.555 81.45 67 84 C71.95 92.415 71.95 92.415 77 101 C77.33 73.28 77.66 45.56 78 17 C54.57 17 31.14 17 7 17 C4.69 11.39 2.38 5.78 0 0 Z " fill="#F8F8F8" transform="translate(76,85)"/>
<path d="M0 0 C7.99969274 11.9995391 6.31978666 34.04786056 3.8125 47.6875 C3.24551922 50.13391706 2.64062436 52.57182702 2 55 C1.75056641 55.9600293 1.75056641 55.9600293 1.49609375 56.93945312 C-2.65545236 72.54619129 -9.16505088 85.92269769 -20 98 C-20.9585948 99.20812592 -21.91695807 100.41643561 -22.875 101.625 C-35.97345172 116.66130485 -55.62637092 126.59008674 -74.75 131.5 C-75.41749268 131.67241211 -76.08498535 131.84482422 -76.77270508 132.02246094 C-80.24313094 132.83798202 -82.60648639 133.00973211 -86 132 C-79.27078084 119.49602439 -72.48075621 107.07219549 -65 95 C-64.31550781 93.89140625 -63.63101563 92.7828125 -62.92578125 91.640625 C-59.39442736 85.99618916 -59.39442736 85.99618916 -58 84 C-57.67 84 -57.34 84 -57 84 C-57.62320121 90.43974581 -58.64008262 96.67572401 -60 103 C-49.11310829 97.60218782 -39.26245734 91.89564773 -30 84 C-29.32710937 83.42894531 -28.65421875 82.85789062 -27.9609375 82.26953125 C-15.09030931 70.36860793 -7.87573369 53.46443406 -3 37 C-2.63648438 35.83984375 -2.27296875 34.6796875 -1.8984375 33.484375 C-0.34710231 27.12821 -0.52792534 20.50569895 -0.375 14 C-0.33674348 12.63930002 -0.29768752 11.27862226 -0.2578125 9.91796875 C-0.16402932 6.6121118 -0.07832611 3.30625326 0 0 Z " fill="#F5F5F5" transform="translate(275,116)"/>
<path d="M0 0 C0.66 0 1.32 0 2 0 C2.50337891 0.95664551 3.00675781 1.91329102 3.52539062 2.89892578 C5.43145157 6.51969568 7.34077174 10.13873904 9.25097656 13.75732422 C10.07019681 15.3102558 10.88858522 16.86362656 11.70605469 18.41748047 C12.89548447 20.67798155 14.08758757 22.93704381 15.28125 25.1953125 C15.67248047 25.93646301 16.06371094 26.67761353 16.46679688 27.44122314 C18.38760673 31.0561357 20.34823337 34.63659089 22.4140625 38.17089844 C22.79203979 38.81775604 23.17001709 39.46461365 23.55944824 40.131073 C24.5916795 41.88262068 25.63625891 43.62687449 26.68164062 45.37060547 C27.33422852 46.67215576 27.33422852 46.67215576 28 48 C27.505 48.99 27.505 48.99 27 50 C22 45 17 40 12 35 C11.5420981 50.15655276 11.42765236 64.43968208 16 79 C16.21962402 79.70334473 16.43924805 80.40668945 16.66552734 81.13134766 C19.58612236 90.18250518 23.36346115 98.28431143 29 106 C29.59425781 106.82757813 30.18851563 107.65515625 30.80078125 108.5078125 C43.07979635 124.72729829 60.58465333 136.88087749 80 143 C76.00109179 144.60562223 72.65415048 143.32664724 68.75 142.0625 C68.04979736 141.83868652 67.34959473 141.61487305 66.62817383 141.38427734 C36.36747549 131.25571046 15.38603419 110.93995071 1 83 C0.56945312 82.18015625 0.13890625 81.3603125 -0.3046875 80.515625 C-11.16777381 58.11577261 -10.67508757 29.97357726 -2.76489258 6.84594727 C-1.93927869 4.50373359 -1.11167542 2.22335084 0 0 Z " fill="#F5F5F5" transform="translate(77,105)"/>
<path d="M0 0 C0.71140137 0.22042969 1.42280273 0.44085938 2.15576172 0.66796875 C23.21387655 7.31096262 41.57398268 19.18001338 55 37 C55 37.33 55 37.66 55 38 C36.52 38 18.04 38 -1 38 C2.4269614 35.42977895 4.64247348 34.20450942 8.5625 32.8125 C9.51253906 32.46832031 10.46257812 32.12414062 11.44140625 31.76953125 C14 31 14 31 17 31 C5.8747964 17.8881529 -14.40744389 11.48177442 -31 10 C-59.28289572 8.48279715 -83.02338052 14.75867218 -104.78515625 33.1796875 C-107 35 -107 35 -109 36 C-102.35423008 20.92051191 -80.7677048 9.28228647 -66.09277344 3.2109375 C-46.04049801 -4.56840365 -20.66320114 -6.64259049 0 0 Z " fill="#F6F6F6" transform="translate(202,41)"/>
<path d="M0 0 C16.5 0 33 0 50 0 C49.07232083 3.71071666 48.08357588 5.76688084 46.09375 8.94921875 C45.51496094 9.87927734 44.93617188 10.80933594 44.33984375 11.76757812 C43.42912109 13.21293945 43.42912109 13.21293945 42.5 14.6875 C41.58927734 16.15026367 41.58927734 16.15026367 40.66015625 17.64257812 C36.16638161 24.83361839 36.16638161 24.83361839 35 26 C32.40640678 26.08851529 29.83960309 26.11525945 27.24609375 26.09765625 C26.47064713 26.0962413 25.6952005 26.09482635 24.89625549 26.09336853 C22.40996506 26.08775345 19.9237634 26.07519846 17.4375 26.0625 C15.75586067 26.05748694 14.07421994 26.0529237 12.39257812 26.04882812 C8.26165671 26.03862832 4.13092818 26.01905605 0 26 C0 17.42 0 8.84 0 0 Z " fill="#090909" transform="translate(195,102)"/>
<path d="M0 0 C2.60574338 1.12145918 5.20959056 2.24699797 7.8125 3.375 C8.55048828 3.69210938 9.28847656 4.00921875 10.04882812 4.3359375 C10.76103516 4.6453125 11.47324219 4.9546875 12.20703125 5.2734375 C12.8616333 5.55622559 13.51623535 5.83901367 14.19067383 6.13037109 C16 7 16 7 19 9 C11.91296261 8.45484328 5.67203894 6.39081395 -1 4 C-0.67 2.68 -0.34 1.36 0 0 Z " fill="#C9C9C9" transform="translate(138,240)"/>
<path d="M0 0 C0.66 0.99 1.32 1.98 2 3 C0.21024844 4.48148332 -1.58186057 5.96011906 -3.375 7.4375 C-4.87160156 8.67306641 -4.87160156 8.67306641 -6.3984375 9.93359375 C-9 12 -9 12 -11 13 C-9.46356148 9.31930113 -7.21849055 7.01224796 -4.375 4.25 C-3.55773437 3.45078125 -2.74046875 2.6515625 -1.8984375 1.828125 C-0.95871094 0.92320313 -0.95871094 0.92320313 0 0 Z " fill="#C3C3C3" transform="translate(104,64)"/>
<path d="M0 0 C0.66 0.33 1.32 0.66 2 1 C1.34 1.66 0.68 2.32 0 3 C0.33 3.66 0.66 4.32 1 5 C-5.75 9 -5.75 9 -8 9 C-6.4169423 4.7257442 -3.49431596 2.73468206 0 0 Z " fill="#E1E1E1" transform="translate(113,57)"/>
</svg>
